<?xml version="1.0" encoding="UTF-8" standalone="no"?>
<!-- Created with Inkscape (http://www.inkscape.org/) -->

<svg
   version="1.1"
   id="svg1"
   width="5326.6665"
   height="1722.6667"
   viewBox="0 0 5326.6665 1722.6667"
   sodipodi:docname="logo_MaskTransparent_White_reversed_thinner.svg"
   inkscape:version="1.4 (e7c3feb1, 2024-10-09)"
   xmlns:inkscape="http://www.inkscape.org/namespaces/inkscape"
   xmlns:sodipodi="http://sodipodi.sourceforge.net/DTD/sodipodi-0.dtd"
   xmlns="http://www.w3.org/2000/svg"
   xmlns:svg="http://www.w3.org/2000/svg">
  <sodipodi:namedview
     id="namedview1"
     pagecolor="#ffffff"
     bordercolor="#000000"
     borderopacity="0.25"
     inkscape:showpageshadow="2"
     inkscape:pageopacity="0.0"
     inkscape:pagecheckerboard="0"
     inkscape:deskcolor="#d1d1d1"
     inkscape:zoom="0.015092879"
     inkscape:cx="2683.3847"
     inkscape:cy="828.20517"
     inkscape:window-width="1440"
     inkscape:window-height="798"
     inkscape:window-x="0"
     inkscape:window-y="25"
     inkscape:window-maximized="0"
     inkscape:current-layer="svg1" />
  <defs
     id="defs1">
    <mask
       maskUnits="userSpaceOnUse"
       id="mask1">
      <path
         id="logo-path"
         style="display:inline;fill:none;stroke:#ffffff;stroke-width:86.2;stroke-dasharray:12965.89;stroke-dashoffset:12965.89"
         d="M 182.28776,979.06432 C 780.3467,836.25289 1542.4455,644.09794 2529.8278,376.21466 3241.2506,150.29034 2658.3924,254.00238 2944.459,212.40746 3033.7904,199.41842 2882.2304,128.3296 2785.8036,172.78649 2609.7845,208.615 2245.9241,306.48184 1957.8918,571.58761 1645.47,862.88621 1162.0544,1257.0993 958.82662,1345.059 c -179.18303,145.6781 -546.5223,222.2636 -643.84505,149.8834 68.71197,-177.5845 1261.99773,-341.5961 1309.65563,-343.4892 123.5314,-4.9072 523.9599,-98.6463 758.8766,-166.60404 326.1274,-103.73766 605.5083,-216.00022 640.7762,-215.6814 83.2847,0.75287 654.1646,-417.39631 669.4632,-323.74958 -207.0414,114.94099 -426.3834,232.47842 -557.4512,360.08169 -390.9872,482.57763 399.1937,597.06463 415.6014,615.22703 552.0156,112.0119 1108.979,121.1682 1668.8044,150.2254 v 0" />
    </mask>
  </defs>
  <g
     id="g10">
    <path
       style="display:inline;fill:#0a0a0a"
       d="m 4762.087,1582.8709 c 7.3426,-2.1641 1.3326,2.3336 0,0 z m 27.3587,-0.041 c 8.7885,-1.9732 1.7054,2.2101 0,0 z m 12,0 c 8.7885,-1.9732 1.7054,2.2101 0,0 z m -35.4772,-3.418 c -42.986,-2.4902 -72.1096,-15.3864 -105.7022,-17.519 -57.702,14.2889 5.7734,-46.8662 -28.5126,-24.8847 -65.6091,26.2312 6.5829,41.7662 -137.9357,31.2748 -318.3436,-15.755 -655.1671,-45.2447 -959.3976,-113.6024 -173.1305,-43.7393 -363.6845,-91.4116 -481.9193,-235.5934 -102.0654,-124.5196 -61.7261,-307.84476 35.2548,-424.38077 -80.8496,9.94007 -167.3278,58.30255 -251.7706,78.83787 -339.6083,119.22264 -684.4294,230.0833 -1037.7083,296.9724 -222.2151,38.8847 -447.9508,49.3328 -665.0262,105.3769 -178.87649,104.1861 -354.6877,234.4489 -566.16366,263.7946 -86.45586,9.1362 -193.26379,22.9405 -268.54705,-18.6009 -56.69862,-58.4076 28.6224,-103.9056 72.3303,-130.2691 141.72091,-77.4103 306.19182,-96.5608 459.62693,-141.9361 105.81709,-20.6492 208.68368,-27.4467 309.25648,-59.6928 114.3836,-90.2792 243.2701,-159.7751 354.3961,-256.102 137.6522,-103.60537 277.7319,-224.38719 387.8566,-346.4297 -269.7606,65.26786 -539.5689,141.18476 -811.2968,201.8876 -266.75154,75.97865 -544.6093,129.81318 -813.76932,204.6979 -43.57036,37.8654 -122.85377,-37.55734 -51.14378,-51.3574 196.86448,-58.97174 403.81315,-92.6814 603.86601,-148.9689 143.17089,-35.06962 306.68959,-76.50683 455.15199,-113.737 82.0778,-16.0585 165.0913,-43.72988 243.6528,-57.4786 95.5377,-29.9344 212.5192,-53.12251 315.8517,-80.4481 98.073,-23.3487 198.4966,-45.33019 272.0906,-120.1521 169.2466,-130.88609 379.3906,-191.76576 579.9161,-257.2945 89.3849,-15.17318 207.8456,-75.904652 284.3627,-1.337 18.6676,98.6274 -106.529,126.35339 -173.9728,158.4459 -236.8672,85.43586 -481.6022,145.62181 -724.0401,217.8271 -186.5684,137.80707 -334.5169,319.57434 -528.1288,449.0139 -74.1841,60.3965 -152.1139,116.0875 -231.5157,169.424 111.6359,-0.135 228.6908,-34.9751 344.056,-41.4173 200.7111,-25.2871 398.578,-76.3309 595.2334,-131.7505 219.9638,-59.8545 433.1635,-141.15794 650.38,-208.0496 36.2979,-17.80931 185.0385,-72.59809 141.9305,-52.7434 135.9708,-57.17223 271.8227,-119.15294 392.582,-208.1285 85.1422,-42.3383 158.5524,-128.52133 258.0631,-126.41882 106.0488,88.71577 -62.7153,123.5206 -117.7041,167.75052 -150.4634,88.18696 -334.226,143.66787 -424.4455,306 -61.1016,82.78063 -125.3723,193.1385 -68.9185,295.2405 68.3369,106.3291 206.0783,140.6161 305.9864,194.0929 135.3489,23.857 277.0404,67.0496 416.4069,83.1049 86.7634,12.7749 83.8972,24.2115 174.3751,23.4449 57.4978,-2.5413 182.6397,8.6452 140.1106,14.5559 57.3231,-4.6651 205.5935,-0.054 162.2188,11.0653 31.7556,12.3551 151.7466,49.121 141.009,23.4519 61.5481,-25.6138 29.3403,20.1969 87.6049,-8.8728 53.3703,9.3944 72.9158,10.8061 123.0597,6.0113 55.8351,17.1608 69.9792,13.1157 73.6217,13.5047 10.2508,-14.3684 102.9798,-5.6075 74.5902,-1.1303 16.0182,5.609 69.5723,28.5527 56.4925,10.3525 19.9825,-14.6638 77.2149,-23.1623 51.3723,-11.5089 42.9569,9.0982 112.5202,22.0306 75.7174,12.7524 18.5901,63.4796 54.3187,39.7838 33.7741,4.8057 59.2255,-38.7027 -31.638,31.6214 -6.1124,23.5831 59.2375,1.7695 81.8303,-33.1865 65.9846,-33.122 1.0841,15.2213 5.7992,69.2082 -10.6748,47.3283 -79.5424,3.9886 -230.6737,-24.6986 -178.607,-11.2145 -39.832,4.4913 -53.3884,10.2025 -95.1695,19.5433 z m -15.5481,-9.8006 c -2.6228,-3.6909 -11.6507,5.2917 0,0 z m -54.2265,-9.1769 c 12.3003,-28.8168 -23.1668,24.2081 0,0 z m 53.2457,5.1892 c 0.6029,-10.2444 -7.0883,2.1007 0,0 z m -153.6859,-7.203 c -3.2185,-9.2685 -3.2188,9.2683 0,0 z m 217.3129,-1.6667 c -2.2758,-4.6443 -2.8131,7.0051 0,0 z m 25.3742,-10.2494 c 25.1028,-15.9762 7.6549,-9.3352 0,0 z m 69.3402,7.9161 c 23.3642,-36.7546 -50.6038,-3.9937 0,0 z m 51.306,0 c -1.6556,-5.2566 -4.7846,5.0762 0,0 z m -135.6,-2.9334 c -3.9008,-30.1556 -43.8552,-0.1083 0,0 z m 116.5574,-2.3571 c -22.4847,-34.7437 -23.6578,6.1914 0,0 z m -176.2907,-1.281 c 17.0206,-63.5762 -22.428,-5.2151 0,0 z m 104.9625,1.0757 c 9.1548,-18.6041 -10.8776,-10.2448 0,0 z m 46.3708,0.1624 c -3.4068,-4.7832 -3.4062,4.7834 0,0 z m 47.3333,-2.6666 c -2.5501,-9.5102 -7.1069,7.2244 0,0 z m -305.5373,-2.4898 c 23.2108,-28.861 -25.3883,3.8798 0,0 z m 142.0826,-5.7067 c -23.319,-2.7734 -7.2382,12.3141 0,0 z m -282.4243,0.5396 c -9.5555,2.9503 0.8361,3.9578 0,0 z m 94.5457,2.3235 c -1.6559,-5.2565 -4.7842,5.0766 0,0 z m 33.3334,0 c -1.6127,-4.8748 -3.2882,4.7499 0,0 z m 33.1048,-2.8649 c 6.1023,-30.1805 -20.4248,12.1458 0,0 z m -121.6838,0.1514 c 14.6732,-19.6562 -13.1737,-3.5755 0,0 z m 180.8565,-2.1957 c -4.496,-6.3152 -11.7087,10.9219 0,0 z m -312.4448,-4.6757 c 2.1852,-14.645 -9.5177,12.815 0,0 z m 48.3554,3.5945 c 12.1881,-23.8589 -26.6984,0.7474 0,0 z m 315.1452,-0.01 c -3.3058,-7.0254 -3.3058,7.0254 0,0 z m 113.3333,0.6667 c -3.4065,-4.7832 -3.4065,4.7832 0,0 z m -440.3333,-1.6667 c -6.0576,-6.0727 -6.057,6.0728 0,0 z m 48,0.8263 c 12.7287,-16.5964 -17.1889,1.5483 0,0 z m 351,-0.4929 c -1.6123,-4.8749 -3.2885,4.7496 0,0 z m -246.6667,-6.9215 c -2.1215,-11.3184 -8.3468,21.5523 0,0 z m -221.8298,2.3244 c 2.0647,-13.2007 -9.8465,10.7887 0,0 z m 21.5892,-0.5074 c -6.4029,-5.8355 -1.2198,10.9623 0,0 z m 160.2406,2.4378 c -5.1257,-4.7802 -3.4174,4.9384 0,0 z m 110.4178,-4.3333 c -5.2589,-13.9324 -1.5622,14.9553 0,0 z m 301.5822,1.7453 c -6.8542,-9.246 -2.0963,5.4693 0,0 z m -884.4601,-2.1362 c -4.6222,-5.1316 -3.9839,8.1 0,0 z m 279.7935,0.7242 c -3.4177,-4.9384 -5.1258,4.7802 0,0 z m 470.6666,0 c -5.1257,-4.7802 -3.4174,4.9384 0,0 z m 49.9628,-0.6218 c 4.7251,-11.3957 -10.8581,8.0403 0,0 z m -6.6294,-1.3782 c -3.3058,-7.0252 -3.3058,7.0252 0,0 z m -57.3334,-2.7454 c -4.1415,-4.8353 -2.53,6.7139 0,0 z m -433.3802,-1.8336 c 6.4989,-20.2842 -14.7013,11.7563 0,0 z m -13.8827,-0.8677 c -15.5438,-5.7174 -2.7762,5.7705 0,0 z m 329.9296,-0.6959 c -3.4106,-5.8322 -8.2515,8.7727 0,0 z m -299.9733,-0.5563 c 3.9395,-10.0009 -11.0224,8.4608 0,0 z m 157.6704,-1.8817 c 1.1456,-9.6133 -8.9545,4.3085 0,0 z m 93.5477,-0.2224 c -10.2578,-0.7965 6.1361,4.4975 0,0 z m -54.2925,-0.197 c 5.3002,-19.9047 -9.6396,7.6616 0,0 z m 13.7144,1.0787 c -3.1119,-4.5797 -3.8401,2.5408 0,0 z m -448,-7.8253 c -7.6104,2.022 -4.1526,8.8153 0,0 z m 493.3333,5.1586 c -6.497,-4.6969 -2.0588,3.2738 0,0 z m -468.0204,-4.4907 c -3.6903,-2.5487 -0.4447,9.0703 0,0 z m 333.3537,-0.9213 c -3.4473,-7.4836 -6.4697,7.1974 0,0 z m -344.9541,-3.2057 c 7.2488,-15.4477 -9.5837,7.2366 0,0 z m 102.2875,-4.3814 c -9.1009,-1.1411 0.02,5.3544 0,0 z m -176.7236,0.3459 c -5.6644,-8.5334 -2.9606,5.6347 0,0 z m 278.7236,-0.092 c -5.1255,-4.7804 -3.4179,4.9385 0,0 z m -406.6566,-11.7677 c -12.041,11.2477 2.5992,4.8438 0,0 z m 291.9899,6.4343 c -5.1259,-4.7802 -3.4172,4.9386 0,0 z m 8.405,-3.4593 c -8.3115,-3.6794 -6.7805,8.2843 0,0 z m -341.912,-2.2073 c 2.9677,-14.5561 -8.3334,11.1298 0,0 z m 160.8403,0.9213 c -1.5417,-4.6914 -3.5606,4.3693 0,0 z m -3665.46531,-1.3742 c 179.33846,-4.3087 346.71549,-83.7933 493.20445,-178.3656 -110.09972,4.744 -226.01217,51.5617 -338.40567,76.3019 -83.95974,6.4096 -161.05709,57.2585 -230.9207,96.6374 15.13627,11.1898 52.44859,2.9641 76.12192,5.4263 z m 28.49083,-2.8045 c 8.78877,-1.9726 1.7051,2.2121 0,0 z m 3469.64118,-1.7426 c -4.7843,-5.0765 -1.6561,5.2565 0,0 z m 108.6667,-2.4119 c -3.303,-10.5868 -9.1855,0.3012 0,0 z m -62.6667,-3.0002 c -4.1416,-4.8354 -2.5301,6.7139 0,0 z m -65.3333,-14.5879 c -3.4063,-4.7833 -3.4069,4.7831 0,0 z m -186.6667,-12 c -3.2882,-4.7499 -1.6128,4.8749 0,0 z M 2211.7556,438.0826 c 182.9369,-56.27654 370.0428,-104.43834 552.7494,-174.4707 104.277,-30.59712 152.2589,-100.93708 11.9613,-56.6916 -181.3953,43.03755 -359.0242,106.72228 -522.5499,194.1669 -9.9574,7.05717 -70.218,35.68787 -42.1608,36.9954 z M 4804.764,1578.9864 c 2.3185,-15.3506 6.0312,0.5147 0,0 z m 264.0166,-8.0391 c -35.5736,-16.6157 99.2135,3.1471 32.2094,-3.1018 -6.0335,8.0112 -23.2778,6.6034 -32.2094,3.1018 z m -733.0269,-8.3045 c 5.2309,-4.0829 5.2309,4.0829 0,0 z m 776.1402,-13.8387 c -6.0507,-36.9566 22.6777,-8.816 0,0 z m -17.4736,-3.7169 c 5.2045,-4.8708 5.204,4.871 0,0 z m 48.9553,-3.5201 c -23.9024,-12.1087 22.4879,-2.7963 0,0 z m -83.8968,-2.5507 c 5.2293,-21.5331 9.0749,7.7948 0,0 z m 14.2749,0.7375 c 3.2883,-4.7496 1.6126,4.8747 0,0 z m 18.8889,0.4444 c 33.492,-15.7502 -3.6457,0.1046 0,0 z m 76.9232,-0.034 c 11.8907,-4.2928 2.5047,3.4815 0,0 z m 10.8545,-0.4101 c 1.6125,-4.8747 3.2884,4.7496 0,0 z m 4.6667,-6.1111 c 8.2335,-3.3476 0.6333,6.4237 0,0 z m -62.5614,-6.6667 c 1.9246,-3.5509 0.5946,5.7485 0,0 z m 12.7281,-0.2859 c -2.6518,-6.5767 5.5994,-0.6602 0,0 z m -173.5,-8.2696 c 1.6123,-4.8749 3.2885,4.7496 0,0 z m 172.6666,0 c 5.1255,-4.7804 3.4179,4.9385 0,0 z m 22,-5.3334 c 3.2886,-4.7496 1.6122,4.8749 0,0 z M 667.42047,892.2042 c 7.34243,-2.16405 1.33257,2.33358 0,0 z"
       id="path1"
       mask="url(#mask1)" />
  </g>
</svg>
